<mxfile host="Electron" agent="Mozilla/5.0 (Windows NT 10.0; Win64; x64) AppleWebKit/537.36 (KHTML, like Gecko) draw.io/25.0.2 Chrome/128.0.6613.186 Electron/32.2.5 Safari/537.36" version="25.0.2" pages="4">
  <diagram id="VsPgMZoNNl_uIHYP6l5i" name="main">
    <mxGraphModel dx="1290" dy="717" grid="1" gridSize="10" guides="1" tooltips="1" connect="1" arrows="1" fold="1" page="1" pageScale="1" pageWidth="827" pageHeight="1169" math="0" shadow="0">
      <root>
        <mxCell id="0" />
        <mxCell id="1" parent="0" />
        <mxCell id="f1KwQGMjOaYYAoUj7Aal-21" value="1" style="text;html=1;align=center;verticalAlign=middle;resizable=0;points=[];autosize=1;strokeColor=none;fillColor=none;" parent="1" vertex="1">
          <mxGeometry x="413.5" y="470" width="30" height="30" as="geometry" />
        </mxCell>
        <mxCell id="f1KwQGMjOaYYAoUj7Aal-22" value="0" style="text;html=1;align=center;verticalAlign=middle;resizable=0;points=[];autosize=1;strokeColor=none;fillColor=none;" parent="1" vertex="1">
          <mxGeometry x="484.5" y="410" width="30" height="30" as="geometry" />
        </mxCell>
        <mxCell id="f1KwQGMjOaYYAoUj7Aal-23" value="{" style="text;html=1;align=center;verticalAlign=middle;resizable=0;points=[];autosize=1;strokeColor=none;fillColor=none;" parent="1" vertex="1">
          <mxGeometry x="424.5" y="440" width="30" height="30" as="geometry" />
        </mxCell>
        <mxCell id="f1KwQGMjOaYYAoUj7Aal-24" value="}" style="text;html=1;align=center;verticalAlign=middle;resizable=0;points=[];autosize=1;strokeColor=none;fillColor=none;" parent="1" vertex="1">
          <mxGeometry x="430" y="598" width="30" height="30" as="geometry" />
        </mxCell>
        <mxCell id="f1KwQGMjOaYYAoUj7Aal-25" value="{" style="text;html=1;align=center;verticalAlign=middle;resizable=0;points=[];autosize=1;strokeColor=none;fillColor=none;" parent="1" vertex="1">
          <mxGeometry x="410" y="180" width="30" height="30" as="geometry" />
        </mxCell>
        <mxCell id="f1KwQGMjOaYYAoUj7Aal-34" value="{" style="text;html=1;align=center;verticalAlign=middle;resizable=0;points=[];autosize=1;strokeColor=none;fillColor=none;" parent="1" vertex="1">
          <mxGeometry x="194.5" y="890" width="30" height="30" as="geometry" />
        </mxCell>
        <mxCell id="f1KwQGMjOaYYAoUj7Aal-35" value="1" style="text;html=1;align=center;verticalAlign=middle;resizable=0;points=[];autosize=1;strokeColor=none;fillColor=none;" parent="1" vertex="1">
          <mxGeometry x="270" y="778" width="30" height="30" as="geometry" />
        </mxCell>
        <mxCell id="f1KwQGMjOaYYAoUj7Aal-40" value="{" style="text;html=1;align=center;verticalAlign=middle;resizable=0;points=[];autosize=1;strokeColor=none;fillColor=none;" parent="1" vertex="1">
          <mxGeometry x="209.5" y="1165" width="30" height="30" as="geometry" />
        </mxCell>
        <mxCell id="f1KwQGMjOaYYAoUj7Aal-43" value="1" style="text;html=1;align=center;verticalAlign=middle;resizable=0;points=[];autosize=1;strokeColor=none;fillColor=none;" parent="1" vertex="1">
          <mxGeometry x="194.5" y="1195" width="30" height="30" as="geometry" />
        </mxCell>
        <mxCell id="f1KwQGMjOaYYAoUj7Aal-47" value="}" style="text;html=1;align=center;verticalAlign=middle;resizable=0;points=[];autosize=1;strokeColor=none;fillColor=none;" parent="1" vertex="1">
          <mxGeometry x="224.5" y="1450" width="30" height="30" as="geometry" />
        </mxCell>
        <mxCell id="f1KwQGMjOaYYAoUj7Aal-50" value="0" style="text;html=1;align=center;verticalAlign=middle;resizable=0;points=[];autosize=1;strokeColor=none;fillColor=none;" parent="1" vertex="1">
          <mxGeometry x="310" y="1120" width="30" height="30" as="geometry" />
        </mxCell>
        <mxCell id="f1KwQGMjOaYYAoUj7Aal-54" value="}" style="text;html=1;align=center;verticalAlign=middle;resizable=0;points=[];autosize=1;strokeColor=none;fillColor=none;" parent="1" vertex="1">
          <mxGeometry x="254.5" y="1600" width="30" height="30" as="geometry" />
        </mxCell>
        <mxCell id="f1KwQGMjOaYYAoUj7Aal-57" value="0" style="text;html=1;align=center;verticalAlign=middle;resizable=0;points=[];autosize=1;strokeColor=none;fillColor=none;" parent="1" vertex="1">
          <mxGeometry x="580" y="778" width="30" height="30" as="geometry" />
        </mxCell>
        <mxCell id="QhQUSY8FxqVfp3-UTrWc-14" value="}" style="text;html=1;align=center;verticalAlign=middle;resizable=0;points=[];autosize=1;strokeColor=none;fillColor=none;" parent="1" vertex="1">
          <mxGeometry x="425" y="1738" width="30" height="30" as="geometry" />
        </mxCell>
        <mxCell id="QhQUSY8FxqVfp3-UTrWc-15" value="" style="group" parent="1" vertex="1" connectable="0">
          <mxGeometry x="60" y="40" width="740" height="1699.9999999999998" as="geometry" />
        </mxCell>
        <mxCell id="f1KwQGMjOaYYAoUj7Aal-1" value="" style="edgeStyle=orthogonalEdgeStyle;rounded=0;orthogonalLoop=1;jettySize=auto;html=1;" parent="QhQUSY8FxqVfp3-UTrWc-15" source="f1KwQGMjOaYYAoUj7Aal-2" target="f1KwQGMjOaYYAoUj7Aal-4" edge="1">
          <mxGeometry relative="1" as="geometry" />
        </mxCell>
        <mxCell id="f1KwQGMjOaYYAoUj7Aal-2" value="Начало" style="strokeWidth=2;html=1;shape=mxgraph.flowchart.start_1;whiteSpace=wrap;" parent="QhQUSY8FxqVfp3-UTrWc-15" vertex="1">
          <mxGeometry x="330" width="100" height="60" as="geometry" />
        </mxCell>
        <mxCell id="f1KwQGMjOaYYAoUj7Aal-3" value="" style="edgeStyle=orthogonalEdgeStyle;rounded=0;orthogonalLoop=1;jettySize=auto;html=1;" parent="QhQUSY8FxqVfp3-UTrWc-15" source="f1KwQGMjOaYYAoUj7Aal-4" target="f1KwQGMjOaYYAoUj7Aal-9" edge="1">
          <mxGeometry relative="1" as="geometry" />
        </mxCell>
        <mxCell id="f1KwQGMjOaYYAoUj7Aal-4" value="int main()" style="shape=process;whiteSpace=wrap;html=1;backgroundOutline=1;strokeWidth=2;" parent="QhQUSY8FxqVfp3-UTrWc-15" vertex="1">
          <mxGeometry x="320" y="100" width="120" height="40" as="geometry" />
        </mxCell>
        <mxCell id="f1KwQGMjOaYYAoUj7Aal-5" value="" style="strokeWidth=2;html=1;shape=mxgraph.flowchart.annotation_1;align=left;pointerEvents=1;" parent="QhQUSY8FxqVfp3-UTrWc-15" vertex="1">
          <mxGeometry x="510" y="20" width="50" height="120" as="geometry" />
        </mxCell>
        <mxCell id="f1KwQGMjOaYYAoUj7Aal-6" value="" style="endArrow=none;dashed=1;html=1;rounded=0;entryX=0;entryY=0.5;entryDx=0;entryDy=0;entryPerimeter=0;" parent="QhQUSY8FxqVfp3-UTrWc-15" target="f1KwQGMjOaYYAoUj7Aal-5" edge="1">
          <mxGeometry width="50" height="50" relative="1" as="geometry">
            <mxPoint x="380" y="80" as="sourcePoint" />
            <mxPoint x="440" y="90" as="targetPoint" />
          </mxGeometry>
        </mxCell>
        <mxCell id="f1KwQGMjOaYYAoUj7Aal-7" value="&lt;div&gt;#include &amp;lt;iostream&amp;gt;&lt;/div&gt;&lt;div&gt;#include &amp;lt;cmath&amp;gt;&lt;/div&gt;&lt;div&gt;#include &amp;lt;clocale&amp;gt;&lt;/div&gt;&lt;div&gt;using namespace std;&lt;/div&gt;&lt;div&gt;double f(double x):&lt;br&gt;&lt;/div&gt;&lt;div&gt;double pr_1(double x);&lt;br&gt;&lt;/div&gt;&lt;div&gt;&lt;span style=&quot;background-color: initial;&quot;&gt;double pr_2(double x);&lt;/span&gt;&lt;/div&gt;&lt;div&gt;&lt;span style=&quot;background-color: initial;&quot;&gt;double a, b, eps;&lt;/span&gt;&lt;br&gt;&lt;/div&gt;" style="text;strokeColor=none;align=left;fillColor=none;html=1;verticalAlign=middle;whiteSpace=wrap;rounded=0;" parent="QhQUSY8FxqVfp3-UTrWc-15" vertex="1">
          <mxGeometry x="517.25" y="27.5" width="160" height="105" as="geometry" />
        </mxCell>
        <mxCell id="f1KwQGMjOaYYAoUj7Aal-8" value="" style="edgeStyle=orthogonalEdgeStyle;rounded=0;orthogonalLoop=1;jettySize=auto;html=1;" parent="QhQUSY8FxqVfp3-UTrWc-15" source="f1KwQGMjOaYYAoUj7Aal-9" target="f1KwQGMjOaYYAoUj7Aal-11" edge="1">
          <mxGeometry relative="1" as="geometry" />
        </mxCell>
        <mxCell id="f1KwQGMjOaYYAoUj7Aal-9" value="setlocale(LC_ALL, &quot;RU&quot;);" style="whiteSpace=wrap;html=1;strokeWidth=2;" parent="QhQUSY8FxqVfp3-UTrWc-15" vertex="1">
          <mxGeometry x="304.5" y="170" width="150" height="40" as="geometry" />
        </mxCell>
        <mxCell id="f1KwQGMjOaYYAoUj7Aal-10" value="" style="edgeStyle=orthogonalEdgeStyle;rounded=0;orthogonalLoop=1;jettySize=auto;html=1;" parent="QhQUSY8FxqVfp3-UTrWc-15" source="f1KwQGMjOaYYAoUj7Aal-11" target="f1KwQGMjOaYYAoUj7Aal-13" edge="1">
          <mxGeometry relative="1" as="geometry" />
        </mxCell>
        <mxCell id="f1KwQGMjOaYYAoUj7Aal-11" value="cout &amp;lt;&amp;lt; &quot;Введите границы интервала через пробел: &quot;;" style="shape=parallelogram;perimeter=parallelogramPerimeter;whiteSpace=wrap;html=1;fixedSize=1;strokeWidth=2;" parent="QhQUSY8FxqVfp3-UTrWc-15" vertex="1">
          <mxGeometry x="214.5" y="230" width="330" height="40" as="geometry" />
        </mxCell>
        <mxCell id="f1KwQGMjOaYYAoUj7Aal-12" value="" style="edgeStyle=orthogonalEdgeStyle;rounded=0;orthogonalLoop=1;jettySize=auto;html=1;" parent="QhQUSY8FxqVfp3-UTrWc-15" source="f1KwQGMjOaYYAoUj7Aal-13" target="f1KwQGMjOaYYAoUj7Aal-16" edge="1">
          <mxGeometry relative="1" as="geometry" />
        </mxCell>
        <mxCell id="f1KwQGMjOaYYAoUj7Aal-13" value="cin &amp;gt;&amp;gt; a &amp;gt;&amp;gt; b;" style="shape=parallelogram;perimeter=parallelogramPerimeter;whiteSpace=wrap;html=1;fixedSize=1;strokeWidth=2;" parent="QhQUSY8FxqVfp3-UTrWc-15" vertex="1">
          <mxGeometry x="319.5" y="290" width="120" height="40" as="geometry" />
        </mxCell>
        <mxCell id="f1KwQGMjOaYYAoUj7Aal-14" value="" style="edgeStyle=orthogonalEdgeStyle;rounded=0;orthogonalLoop=1;jettySize=auto;html=1;entryX=0.5;entryY=0;entryDx=0;entryDy=0;" parent="QhQUSY8FxqVfp3-UTrWc-15" source="f1KwQGMjOaYYAoUj7Aal-16" target="f1KwQGMjOaYYAoUj7Aal-18" edge="1">
          <mxGeometry relative="1" as="geometry" />
        </mxCell>
        <mxCell id="f1KwQGMjOaYYAoUj7Aal-15" style="edgeStyle=orthogonalEdgeStyle;rounded=0;orthogonalLoop=1;jettySize=auto;html=1;entryX=0.5;entryY=0;entryDx=0;entryDy=0;" parent="QhQUSY8FxqVfp3-UTrWc-15" source="f1KwQGMjOaYYAoUj7Aal-16" target="f1KwQGMjOaYYAoUj7Aal-27" edge="1">
          <mxGeometry relative="1" as="geometry">
            <mxPoint x="379.5" y="610" as="targetPoint" />
            <Array as="points">
              <mxPoint x="600" y="400" />
              <mxPoint x="600" y="590" />
              <mxPoint x="380" y="590" />
            </Array>
          </mxGeometry>
        </mxCell>
        <mxCell id="f1KwQGMjOaYYAoUj7Aal-16" value="while (a &amp;gt;= b)" style="rhombus;whiteSpace=wrap;html=1;strokeWidth=2;" parent="QhQUSY8FxqVfp3-UTrWc-15" vertex="1">
          <mxGeometry x="329.5" y="370" width="100" height="60" as="geometry" />
        </mxCell>
        <mxCell id="f1KwQGMjOaYYAoUj7Aal-17" value="" style="edgeStyle=orthogonalEdgeStyle;rounded=0;orthogonalLoop=1;jettySize=auto;html=1;" parent="QhQUSY8FxqVfp3-UTrWc-15" source="f1KwQGMjOaYYAoUj7Aal-18" target="f1KwQGMjOaYYAoUj7Aal-20" edge="1">
          <mxGeometry relative="1" as="geometry" />
        </mxCell>
        <mxCell id="f1KwQGMjOaYYAoUj7Aal-18" value="&lt;div style=&quot;&quot;&gt;&lt;span style=&quot;white-space: normal;&quot;&gt;&lt;span style=&quot;white-space:pre&quot;&gt;&#x9;&#x9;&lt;/span&gt;cout &amp;lt;&amp;lt; &quot;Левая граница должна быть меньше правой. \&lt;/span&gt;&lt;/div&gt;&lt;div style=&quot;&quot;&gt;Осуществите повторный ввод границ через пробел: &quot;;&lt;/div&gt;" style="shape=parallelogram;perimeter=parallelogramPerimeter;whiteSpace=wrap;html=1;fixedSize=1;strokeWidth=2;align=center;" parent="QhQUSY8FxqVfp3-UTrWc-15" vertex="1">
          <mxGeometry x="184.5" y="460" width="390" height="40" as="geometry" />
        </mxCell>
        <mxCell id="f1KwQGMjOaYYAoUj7Aal-19" style="edgeStyle=orthogonalEdgeStyle;rounded=0;orthogonalLoop=1;jettySize=auto;html=1;" parent="QhQUSY8FxqVfp3-UTrWc-15" source="f1KwQGMjOaYYAoUj7Aal-20" edge="1">
          <mxGeometry relative="1" as="geometry">
            <Array as="points">
              <mxPoint x="380" y="580" />
              <mxPoint x="160" y="580" />
              <mxPoint x="160" y="350" />
              <mxPoint x="310" y="350" />
            </Array>
            <mxPoint x="380" y="350" as="targetPoint" />
          </mxGeometry>
        </mxCell>
        <mxCell id="f1KwQGMjOaYYAoUj7Aal-20" value="cin &amp;gt;&amp;gt; a &amp;gt;&amp;gt; b;" style="shape=parallelogram;perimeter=parallelogramPerimeter;whiteSpace=wrap;html=1;fixedSize=1;strokeWidth=2;" parent="QhQUSY8FxqVfp3-UTrWc-15" vertex="1">
          <mxGeometry x="319.5" y="520" width="120" height="40" as="geometry" />
        </mxCell>
        <mxCell id="f1KwQGMjOaYYAoUj7Aal-26" value="" style="edgeStyle=orthogonalEdgeStyle;rounded=0;orthogonalLoop=1;jettySize=auto;html=1;entryX=0.5;entryY=0;entryDx=0;entryDy=0;" parent="QhQUSY8FxqVfp3-UTrWc-15" source="f1KwQGMjOaYYAoUj7Aal-27" target="f1KwQGMjOaYYAoUj7Aal-29" edge="1">
          <mxGeometry relative="1" as="geometry" />
        </mxCell>
        <mxCell id="f1KwQGMjOaYYAoUj7Aal-27" value="cout &amp;lt;&amp;lt; &quot;Введите точность вычислений: &quot;;" style="shape=parallelogram;perimeter=parallelogramPerimeter;whiteSpace=wrap;html=1;fixedSize=1;strokeWidth=2;" parent="QhQUSY8FxqVfp3-UTrWc-15" vertex="1">
          <mxGeometry x="241.75" y="610" width="275.5" height="40" as="geometry" />
        </mxCell>
        <mxCell id="f1KwQGMjOaYYAoUj7Aal-31" value="" style="edgeStyle=orthogonalEdgeStyle;rounded=0;orthogonalLoop=1;jettySize=auto;html=1;" parent="QhQUSY8FxqVfp3-UTrWc-15" source="f1KwQGMjOaYYAoUj7Aal-29" target="f1KwQGMjOaYYAoUj7Aal-30" edge="1">
          <mxGeometry relative="1" as="geometry" />
        </mxCell>
        <mxCell id="f1KwQGMjOaYYAoUj7Aal-29" value="cin &amp;gt;&amp;gt; eps;" style="shape=parallelogram;perimeter=parallelogramPerimeter;whiteSpace=wrap;html=1;fixedSize=1;strokeWidth=2;" parent="QhQUSY8FxqVfp3-UTrWc-15" vertex="1">
          <mxGeometry x="320" y="670" width="120" height="40" as="geometry" />
        </mxCell>
        <mxCell id="f1KwQGMjOaYYAoUj7Aal-32" style="edgeStyle=orthogonalEdgeStyle;rounded=0;orthogonalLoop=1;jettySize=auto;html=1;entryX=0.5;entryY=0;entryDx=0;entryDy=0;" parent="QhQUSY8FxqVfp3-UTrWc-15" source="f1KwQGMjOaYYAoUj7Aal-30" target="f1KwQGMjOaYYAoUj7Aal-33" edge="1">
          <mxGeometry relative="1" as="geometry">
            <mxPoint x="100" y="880" as="targetPoint" />
          </mxGeometry>
        </mxCell>
        <mxCell id="f1KwQGMjOaYYAoUj7Aal-56" value="" style="edgeStyle=orthogonalEdgeStyle;rounded=0;orthogonalLoop=1;jettySize=auto;html=1;exitX=1;exitY=0.5;exitDx=0;exitDy=0;" parent="QhQUSY8FxqVfp3-UTrWc-15" source="f1KwQGMjOaYYAoUj7Aal-30" target="f1KwQGMjOaYYAoUj7Aal-55" edge="1">
          <mxGeometry relative="1" as="geometry" />
        </mxCell>
        <mxCell id="f1KwQGMjOaYYAoUj7Aal-30" value="if (f(a) * pr_2(a) &amp;gt; 0 || f(b) * pr_2(b) &amp;gt; 0)" style="rhombus;whiteSpace=wrap;html=1;strokeWidth=2;" parent="QhQUSY8FxqVfp3-UTrWc-15" vertex="1">
          <mxGeometry x="239.5" y="730" width="280" height="80" as="geometry" />
        </mxCell>
        <mxCell id="f1KwQGMjOaYYAoUj7Aal-37" value="" style="edgeStyle=orthogonalEdgeStyle;rounded=0;orthogonalLoop=1;jettySize=auto;html=1;" parent="QhQUSY8FxqVfp3-UTrWc-15" source="f1KwQGMjOaYYAoUj7Aal-33" target="f1KwQGMjOaYYAoUj7Aal-36" edge="1">
          <mxGeometry relative="1" as="geometry" />
        </mxCell>
        <mxCell id="f1KwQGMjOaYYAoUj7Aal-33" value="double x0 = b;" style="whiteSpace=wrap;html=1;strokeWidth=2;" parent="QhQUSY8FxqVfp3-UTrWc-15" vertex="1">
          <mxGeometry x="104.5" y="880" width="120" height="40" as="geometry" />
        </mxCell>
        <mxCell id="QhQUSY8FxqVfp3-UTrWc-2" value="" style="edgeStyle=orthogonalEdgeStyle;rounded=0;orthogonalLoop=1;jettySize=auto;html=1;" parent="QhQUSY8FxqVfp3-UTrWc-15" source="f1KwQGMjOaYYAoUj7Aal-36" target="QhQUSY8FxqVfp3-UTrWc-1" edge="1">
          <mxGeometry relative="1" as="geometry" />
        </mxCell>
        <mxCell id="f1KwQGMjOaYYAoUj7Aal-36" value="double x1 = x0 - (f(x0) / pr_1(x0));" style="whiteSpace=wrap;html=1;strokeWidth=2;" parent="QhQUSY8FxqVfp3-UTrWc-15" vertex="1">
          <mxGeometry x="64.5" y="940" width="200" height="40" as="geometry" />
        </mxCell>
        <mxCell id="QhQUSY8FxqVfp3-UTrWc-12" style="edgeStyle=orthogonalEdgeStyle;rounded=0;orthogonalLoop=1;jettySize=auto;html=1;entryX=0.468;entryY=0;entryDx=0;entryDy=0;entryPerimeter=0;" parent="QhQUSY8FxqVfp3-UTrWc-15" source="f1KwQGMjOaYYAoUj7Aal-38" target="f1KwQGMjOaYYAoUj7Aal-48" edge="1">
          <mxGeometry relative="1" as="geometry">
            <mxPoint x="180" y="1480" as="targetPoint" />
            <Array as="points">
              <mxPoint x="340" y="1115" />
              <mxPoint x="340" y="1470" />
              <mxPoint x="180" y="1470" />
            </Array>
          </mxGeometry>
        </mxCell>
        <mxCell id="f1KwQGMjOaYYAoUj7Aal-38" value="while (abs(x1 - x0) &amp;gt;= eps)" style="rhombus;whiteSpace=wrap;html=1;strokeWidth=2;" parent="QhQUSY8FxqVfp3-UTrWc-15" vertex="1">
          <mxGeometry x="68.72" y="1075" width="190" height="80" as="geometry" />
        </mxCell>
        <mxCell id="QhQUSY8FxqVfp3-UTrWc-5" value="" style="edgeStyle=orthogonalEdgeStyle;rounded=0;orthogonalLoop=1;jettySize=auto;html=1;" parent="QhQUSY8FxqVfp3-UTrWc-15" source="f1KwQGMjOaYYAoUj7Aal-40" target="QhQUSY8FxqVfp3-UTrWc-4" edge="1">
          <mxGeometry relative="1" as="geometry" />
        </mxCell>
        <mxCell id="f1KwQGMjOaYYAoUj7Aal-45" value="" style="edgeStyle=orthogonalEdgeStyle;rounded=0;orthogonalLoop=1;jettySize=auto;html=1;" parent="QhQUSY8FxqVfp3-UTrWc-15" source="f1KwQGMjOaYYAoUj7Aal-41" target="f1KwQGMjOaYYAoUj7Aal-44" edge="1">
          <mxGeometry relative="1" as="geometry" />
        </mxCell>
        <mxCell id="f1KwQGMjOaYYAoUj7Aal-41" value="x0 = x1;" style="whiteSpace=wrap;html=1;" parent="QhQUSY8FxqVfp3-UTrWc-15" vertex="1">
          <mxGeometry x="123.72" y="1310" width="80" height="35" as="geometry" />
        </mxCell>
        <mxCell id="f1KwQGMjOaYYAoUj7Aal-46" style="edgeStyle=orthogonalEdgeStyle;rounded=0;orthogonalLoop=1;jettySize=auto;html=1;exitX=0.5;exitY=1;exitDx=0;exitDy=0;" parent="QhQUSY8FxqVfp3-UTrWc-15" source="f1KwQGMjOaYYAoUj7Aal-44" edge="1">
          <mxGeometry relative="1" as="geometry">
            <mxPoint x="164" y="1060" as="targetPoint" />
            <Array as="points">
              <mxPoint x="164" y="1440" />
              <mxPoint y="1440" />
              <mxPoint y="1060" />
            </Array>
          </mxGeometry>
        </mxCell>
        <mxCell id="f1KwQGMjOaYYAoUj7Aal-44" value="x1 = x0 - (f(x0) / pr_1(x0));" style="whiteSpace=wrap;html=1;" parent="QhQUSY8FxqVfp3-UTrWc-15" vertex="1">
          <mxGeometry x="83.72" y="1370" width="160" height="40" as="geometry" />
        </mxCell>
        <mxCell id="f1KwQGMjOaYYAoUj7Aal-53" style="edgeStyle=orthogonalEdgeStyle;rounded=0;orthogonalLoop=1;jettySize=auto;html=1;exitX=0.5;exitY=1;exitDx=0;exitDy=0;" parent="QhQUSY8FxqVfp3-UTrWc-15" source="f1KwQGMjOaYYAoUj7Aal-48" edge="1">
          <mxGeometry relative="1" as="geometry">
            <mxPoint x="380" y="1600" as="targetPoint" />
            <Array as="points">
              <mxPoint x="189" y="1600" />
              <mxPoint x="405" y="1600" />
            </Array>
          </mxGeometry>
        </mxCell>
        <mxCell id="f1KwQGMjOaYYAoUj7Aal-48" value="cout &amp;lt;&amp;lt; &quot;Найденное значение корня: &quot; &amp;lt;&amp;lt; x1;" style="shape=parallelogram;perimeter=parallelogramPerimeter;whiteSpace=wrap;html=1;fixedSize=1;strokeWidth=2;" parent="QhQUSY8FxqVfp3-UTrWc-15" vertex="1">
          <mxGeometry x="50" y="1500" width="280" height="60" as="geometry" />
        </mxCell>
        <mxCell id="f1KwQGMjOaYYAoUj7Aal-58" style="edgeStyle=orthogonalEdgeStyle;rounded=0;orthogonalLoop=1;jettySize=auto;html=1;exitX=0.5;exitY=1;exitDx=0;exitDy=0;" parent="QhQUSY8FxqVfp3-UTrWc-15" source="f1KwQGMjOaYYAoUj7Aal-55" edge="1">
          <mxGeometry relative="1" as="geometry">
            <mxPoint x="380" y="1600" as="targetPoint" />
            <Array as="points">
              <mxPoint x="620" y="1600" />
              <mxPoint x="380" y="1600" />
            </Array>
          </mxGeometry>
        </mxCell>
        <mxCell id="f1KwQGMjOaYYAoUj7Aal-55" value="cout &amp;lt;&amp;lt; &quot;Корня на интервале нет.&quot;;" style="shape=parallelogram;perimeter=parallelogramPerimeter;whiteSpace=wrap;html=1;fixedSize=1;strokeWidth=2;" parent="QhQUSY8FxqVfp3-UTrWc-15" vertex="1">
          <mxGeometry x="500" y="1093.75" width="240" height="42.5" as="geometry" />
        </mxCell>
        <mxCell id="f1KwQGMjOaYYAoUj7Aal-59" value="" style="endArrow=classic;html=1;rounded=0;" parent="QhQUSY8FxqVfp3-UTrWc-15" target="f1KwQGMjOaYYAoUj7Aal-60" edge="1">
          <mxGeometry width="50" height="50" relative="1" as="geometry">
            <mxPoint x="379.5" y="1600" as="sourcePoint" />
            <mxPoint x="379.5" y="1640" as="targetPoint" />
          </mxGeometry>
        </mxCell>
        <mxCell id="f1KwQGMjOaYYAoUj7Aal-60" value="return 0;" style="strokeWidth=2;html=1;shape=mxgraph.flowchart.start_1;whiteSpace=wrap;" parent="QhQUSY8FxqVfp3-UTrWc-15" vertex="1">
          <mxGeometry x="329.5" y="1639.9999999999998" width="100" height="60" as="geometry" />
        </mxCell>
        <mxCell id="QhQUSY8FxqVfp3-UTrWc-3" style="edgeStyle=orthogonalEdgeStyle;rounded=0;orthogonalLoop=1;jettySize=auto;html=1;entryX=0.5;entryY=0;entryDx=0;entryDy=0;" parent="QhQUSY8FxqVfp3-UTrWc-15" source="QhQUSY8FxqVfp3-UTrWc-1" target="f1KwQGMjOaYYAoUj7Aal-38" edge="1">
          <mxGeometry relative="1" as="geometry" />
        </mxCell>
        <mxCell id="QhQUSY8FxqVfp3-UTrWc-1" value="int k = 1;" style="whiteSpace=wrap;html=1;strokeWidth=2;" parent="QhQUSY8FxqVfp3-UTrWc-15" vertex="1">
          <mxGeometry x="121.75" y="1000" width="85.5" height="40" as="geometry" />
        </mxCell>
        <mxCell id="QhQUSY8FxqVfp3-UTrWc-8" style="edgeStyle=orthogonalEdgeStyle;rounded=0;orthogonalLoop=1;jettySize=auto;html=1;entryX=0.5;entryY=0;entryDx=0;entryDy=0;" parent="QhQUSY8FxqVfp3-UTrWc-15" source="QhQUSY8FxqVfp3-UTrWc-4" target="QhQUSY8FxqVfp3-UTrWc-9" edge="1">
          <mxGeometry relative="1" as="geometry">
            <mxPoint x="164.5" y="1260" as="targetPoint" />
          </mxGeometry>
        </mxCell>
        <mxCell id="QhQUSY8FxqVfp3-UTrWc-4" value="cout &amp;lt;&amp;lt; &quot;Итерация &quot; &amp;lt;&amp;lt; k &amp;lt;&amp;lt; &#39;:&#39; &amp;lt;&amp;lt; x1 &amp;lt;&amp;lt; endl;" style="shape=parallelogram;perimeter=parallelogramPerimeter;whiteSpace=wrap;html=1;fixedSize=1;" parent="QhQUSY8FxqVfp3-UTrWc-15" vertex="1">
          <mxGeometry x="21.75" y="1190" width="285.5" height="40" as="geometry" />
        </mxCell>
        <mxCell id="QhQUSY8FxqVfp3-UTrWc-11" style="edgeStyle=orthogonalEdgeStyle;rounded=0;orthogonalLoop=1;jettySize=auto;html=1;entryX=0.5;entryY=0;entryDx=0;entryDy=0;" parent="QhQUSY8FxqVfp3-UTrWc-15" source="QhQUSY8FxqVfp3-UTrWc-9" target="f1KwQGMjOaYYAoUj7Aal-41" edge="1">
          <mxGeometry relative="1" as="geometry" />
        </mxCell>
        <mxCell id="QhQUSY8FxqVfp3-UTrWc-9" value="k++;" style="whiteSpace=wrap;html=1;" parent="QhQUSY8FxqVfp3-UTrWc-15" vertex="1">
          <mxGeometry x="123.72" y="1250" width="80" height="35" as="geometry" />
        </mxCell>
      </root>
    </mxGraphModel>
  </diagram>
  <diagram name="f" id="TbRhXIZ64qlNZPXsGHhV">
    <mxGraphModel dx="651" dy="886" grid="1" gridSize="10" guides="1" tooltips="1" connect="1" arrows="1" fold="1" page="1" pageScale="1" pageWidth="827" pageHeight="1169" math="0" shadow="0">
      <root>
        <mxCell id="0" />
        <mxCell id="1" parent="0" />
        <mxCell id="LiZtLPnCZVnuNR_Md5q--1" value="" style="group" vertex="1" connectable="0" parent="1">
          <mxGeometry x="328" y="40" width="140" height="40" as="geometry" />
        </mxCell>
        <mxCell id="LiZtLPnCZVnuNR_Md5q--2" value="" style="verticalLabelPosition=bottom;verticalAlign=top;html=1;shape=process;whiteSpace=wrap;rounded=1;size=0.08333333333333333;arcSize=6;" vertex="1" parent="LiZtLPnCZVnuNR_Md5q--1">
          <mxGeometry width="140" height="40" as="geometry" />
        </mxCell>
        <mxCell id="LiZtLPnCZVnuNR_Md5q--3" value="&lt;font&gt;double f(double x)&lt;/font&gt;" style="text;strokeColor=none;align=center;fillColor=none;html=1;verticalAlign=middle;whiteSpace=wrap;rounded=0;" vertex="1" parent="LiZtLPnCZVnuNR_Md5q--1">
          <mxGeometry x="20" y="5" width="100" height="30" as="geometry" />
        </mxCell>
        <mxCell id="LiZtLPnCZVnuNR_Md5q--4" value="return x - 2 + sin(1 / x);" style="ellipse;whiteSpace=wrap;html=1;" vertex="1" parent="1">
          <mxGeometry x="320" y="122" width="155" height="40" as="geometry" />
        </mxCell>
        <mxCell id="LiZtLPnCZVnuNR_Md5q--5" value="" style="edgeStyle=orthogonalEdgeStyle;rounded=0;orthogonalLoop=1;jettySize=auto;html=1;exitX=0.5;exitY=1;exitDx=0;exitDy=0;entryX=0.5;entryY=0;entryDx=0;entryDy=0;" edge="1" parent="1" source="LiZtLPnCZVnuNR_Md5q--2" target="LiZtLPnCZVnuNR_Md5q--4">
          <mxGeometry relative="1" as="geometry">
            <mxPoint x="397.5" y="92" as="sourcePoint" />
          </mxGeometry>
        </mxCell>
        <mxCell id="LiZtLPnCZVnuNR_Md5q--6" value="{" style="text;html=1;align=center;verticalAlign=middle;resizable=0;points=[];autosize=1;strokeColor=none;fillColor=none;" vertex="1" parent="1">
          <mxGeometry x="368" y="80" width="30" height="30" as="geometry" />
        </mxCell>
        <mxCell id="LiZtLPnCZVnuNR_Md5q--7" value="}" style="text;html=1;align=center;verticalAlign=middle;resizable=0;points=[];autosize=1;strokeColor=none;fillColor=none;" vertex="1" parent="1">
          <mxGeometry x="383" y="160" width="30" height="30" as="geometry" />
        </mxCell>
      </root>
    </mxGraphModel>
  </diagram>
  <diagram id="QXfX6zH89hUE5AxZg_d9" name="pr_1">
    <mxGraphModel dx="347" dy="473" grid="1" gridSize="10" guides="1" tooltips="1" connect="1" arrows="1" fold="1" page="1" pageScale="1" pageWidth="827" pageHeight="1169" math="0" shadow="0">
      <root>
        <mxCell id="0" />
        <mxCell id="1" parent="0" />
        <mxCell id="lNVbhKe0nVLLFxBeuaDY-1" value="" style="group" vertex="1" connectable="0" parent="1">
          <mxGeometry x="198" y="38" width="160" height="40" as="geometry" />
        </mxCell>
        <mxCell id="lNVbhKe0nVLLFxBeuaDY-2" value="" style="verticalLabelPosition=bottom;verticalAlign=top;html=1;shape=process;whiteSpace=wrap;rounded=1;size=0.08333333333333333;arcSize=6;" vertex="1" parent="lNVbhKe0nVLLFxBeuaDY-1">
          <mxGeometry width="160" height="40" as="geometry" />
        </mxCell>
        <mxCell id="lNVbhKe0nVLLFxBeuaDY-3" value="&lt;font&gt;double pr_1(double x)&lt;/font&gt;" style="text;strokeColor=none;align=center;fillColor=none;html=1;verticalAlign=middle;whiteSpace=wrap;rounded=0;" vertex="1" parent="lNVbhKe0nVLLFxBeuaDY-1">
          <mxGeometry x="20" y="5" width="120" height="30" as="geometry" />
        </mxCell>
        <mxCell id="lNVbhKe0nVLLFxBeuaDY-4" value="return 1 - (cos(1 / x) / pow(x, 2));" style="ellipse;whiteSpace=wrap;html=1;" vertex="1" parent="1">
          <mxGeometry x="178" y="118" width="200" height="40" as="geometry" />
        </mxCell>
        <mxCell id="lNVbhKe0nVLLFxBeuaDY-5" value="" style="edgeStyle=orthogonalEdgeStyle;rounded=0;orthogonalLoop=1;jettySize=auto;html=1;exitX=0.5;exitY=1;exitDx=0;exitDy=0;entryX=0.5;entryY=0;entryDx=0;entryDy=0;" edge="1" parent="1" source="lNVbhKe0nVLLFxBeuaDY-2" target="lNVbhKe0nVLLFxBeuaDY-4">
          <mxGeometry relative="1" as="geometry">
            <mxPoint x="277.5" y="90" as="sourcePoint" />
          </mxGeometry>
        </mxCell>
        <mxCell id="lNVbhKe0nVLLFxBeuaDY-6" value="{" style="text;html=1;align=center;verticalAlign=middle;resizable=0;points=[];autosize=1;strokeColor=none;fillColor=none;" vertex="1" parent="1">
          <mxGeometry x="248" y="78" width="30" height="30" as="geometry" />
        </mxCell>
        <mxCell id="lNVbhKe0nVLLFxBeuaDY-7" value="}" style="text;html=1;align=center;verticalAlign=middle;resizable=0;points=[];autosize=1;strokeColor=none;fillColor=none;" vertex="1" parent="1">
          <mxGeometry x="263" y="158" width="30" height="30" as="geometry" />
        </mxCell>
      </root>
    </mxGraphModel>
  </diagram>
  <diagram id="P75KsKDTa55fEeHnpWUI" name="pr_2">
    <mxGraphModel dx="386" dy="525" grid="1" gridSize="10" guides="1" tooltips="1" connect="1" arrows="1" fold="1" page="1" pageScale="1" pageWidth="827" pageHeight="1169" math="0" shadow="0">
      <root>
        <mxCell id="0" />
        <mxCell id="1" parent="0" />
        <mxCell id="ROZ7GoNYwTyFd9SmIvYc-1" value="" style="group" vertex="1" connectable="0" parent="1">
          <mxGeometry x="198" y="38" width="160" height="40" as="geometry" />
        </mxCell>
        <mxCell id="ROZ7GoNYwTyFd9SmIvYc-2" value="" style="verticalLabelPosition=bottom;verticalAlign=top;html=1;shape=process;whiteSpace=wrap;rounded=1;size=0.08333333333333333;arcSize=6;" vertex="1" parent="ROZ7GoNYwTyFd9SmIvYc-1">
          <mxGeometry width="160" height="40" as="geometry" />
        </mxCell>
        <mxCell id="ROZ7GoNYwTyFd9SmIvYc-3" value="&lt;font&gt;double pr_1(double x)&lt;/font&gt;" style="text;strokeColor=none;align=center;fillColor=none;html=1;verticalAlign=middle;whiteSpace=wrap;rounded=0;" vertex="1" parent="ROZ7GoNYwTyFd9SmIvYc-1">
          <mxGeometry x="20" y="5" width="120" height="30" as="geometry" />
        </mxCell>
        <mxCell id="ROZ7GoNYwTyFd9SmIvYc-4" value="return (2 * cos(1 / x) * x - sin(1 / x)) / pow(x, 4);" style="ellipse;whiteSpace=wrap;html=1;" vertex="1" parent="1">
          <mxGeometry x="143" y="118" width="270" height="42" as="geometry" />
        </mxCell>
        <mxCell id="ROZ7GoNYwTyFd9SmIvYc-5" value="" style="edgeStyle=orthogonalEdgeStyle;rounded=0;orthogonalLoop=1;jettySize=auto;html=1;exitX=0.5;exitY=1;exitDx=0;exitDy=0;entryX=0.5;entryY=0;entryDx=0;entryDy=0;" edge="1" parent="1" source="ROZ7GoNYwTyFd9SmIvYc-2" target="ROZ7GoNYwTyFd9SmIvYc-4">
          <mxGeometry relative="1" as="geometry">
            <mxPoint x="277.5" y="90" as="sourcePoint" />
          </mxGeometry>
        </mxCell>
        <mxCell id="ROZ7GoNYwTyFd9SmIvYc-6" value="{" style="text;html=1;align=center;verticalAlign=middle;resizable=0;points=[];autosize=1;strokeColor=none;fillColor=none;" vertex="1" parent="1">
          <mxGeometry x="248" y="78" width="30" height="30" as="geometry" />
        </mxCell>
        <mxCell id="ROZ7GoNYwTyFd9SmIvYc-7" value="}" style="text;html=1;align=center;verticalAlign=middle;resizable=0;points=[];autosize=1;strokeColor=none;fillColor=none;" vertex="1" parent="1">
          <mxGeometry x="263" y="158" width="30" height="30" as="geometry" />
        </mxCell>
      </root>
    </mxGraphModel>
  </diagram>
</mxfile>
